/* XPM */
static char * closeA_xpm[] = {
"15 34 3 1",
" 	c None",
".	c #000000",
"+	c #404B5A",
"...............",
"...............",
"++++++++++++++.",
"++++++++++++++.",
"++++++++++++++.",
"++++++++++++++.",
"++++++++++++++.",
"++++++++++++++.",
"++++++++++++++.",
"...............",
"...............",
"+++++++++++++++",
"+++++++++++++++",
"+++++++++++++++",
"+++++++++++++++",
"+++++++++++++++",
"+++++++++++++++",
"...............",
"...............",
"++++++++++++++.",
"++++++++++++++.",
"++++++++++++++.",
"++++++++++++++.",
"++++++++++++++.",
"++++++++++++++.",
"++++++++++++++.",
"...............",
"...............",
"+++++++++++++++",
"+++++++++++++++",
"+++++++++++++++",
"+++++++++++++++",
"+++++++++++++++",
"+++++++++++++++"};
