/* XPM */
static char * closeA_xpm[] = {
"15 34 63 1",
" 	c None",
".	c #404B5A",
"+	c #58677B",
"@	c #000000",
"#	c #404B5A",
"$	c #2C333D",
"%	c #B9BDC3",
"&	c #FFFFFF",
"*	c #DFE1E3",
"=	c #4A5463",
"-	c #6D7681",
";	c #C1C4C9",
">	c #555F6C",
",	c #CED1D5",
"'	c #4D5866",
")	c #626B78",
"!	c #F7F8F8",
"~	c #888F98",
"{	c #46515F",
"]	c #C8CBD0",
"^	c #B0B4BB",
"/	c #7E8690",
"(	c #C3C6CB",
"_	c #A8ADB4",
":	c #8A919A",
"<	c #CCCFD3",
"[	c #F9FAFA",
"}	c #646D79",
"|	c #4F5967",
"1	c #D0D2D6",
"2	c #515B69",
"3	c #444F5E",
"4	c #6A727E",
"5	c #A4AAB1",
"6	c #363E48",
"7	c #6D7C90",
"8	c #525D6C",
"9	c #BFC3C9",
"0	c #E2E3E6",
"a	c #596372",
"b	c #7A828E",
"c	c #C6CACE",
"d	c #636D7B",
"e	c #D2D5D9",
"f	c #5C6775",
"g	c #6F7985",
"h	c #F8F9F9",
"i	c #9299A2",
"j	c #55606F",
"k	c #CDD0D4",
"l	c #B6BBC1",
"m	c #89919B",
"n	c #AFB4BB",
"o	c #949BA4",
"p	c #D0D3D7",
"q	c #FAFAFB",
"r	c #717A86",
"s	c #5E6876",
"t	c #D4D6DA",
"u	c #606A78",
"v	c #545F6D",
"w	c #767F8B",
"x	c #ACB1B8",
"...............",
"++++++++++++++@",
"+############$@",
"+#%&*=####-;#$@",
"+#=*&%###>,'#$@",
"+##)!&~#{])##$@",
"+###~&!)^/###$@",
"+####%&(_####$@",
"+####:<[%####$@",
"+###}]}!&~###$@",
"+##|12#~&!)##$@",
"+#3(4###%&*=#$@",
"+#5:####=*&%#$@",
"+############$@",
"+$$$$$$$$$$$$$@",
"@@@@@@@@@@@@@@@",
"...............",
"...............",
"@@@@@@@@@@@@@@@",
"@66666666666667",
"@68888888888887",
"@689&0a8888bc87",
"@68a0&9888def87",
"@688gh&i8jkg887",
"@6888i&hglm8887",
"@688889&]n88887",
"@68888opq988887",
"@6888rkrh&i8887",
"@688stu8i&hg887",
"@68v]w8889&0a87",
"@68xo8888a0&987",
"@68888888888887",
"@77777777777777",
"..............."};
