/* XPM */
static char * frameATL_xpm[] = {
"16 16 3 1",
" 	c None",
".	c #404B5A",
"+	c #FFFFFF",
"................",
"................",
"................",
"................",
"................",
"................",
"......++++++++++",
"......++++++++++",
"......++++++++++",
"......++++++++++",
"......++++++++++",
"......++++++++++",
"......++++++++++",
"......++++++++++",
"......++++++++++",
"......++++++++++"};
