/* XPM */
static char * frameABR_xpm[] = {
"16 16 3 1",
" 	c None",
".	c #FFFFFF",
"+	c #404B5A",
"..........++++++",
"..........++++++",
"..........++++++",
"..........++++++",
"..........++++++",
"..........++++++",
"..........++++++",
"..........++++++",
"..........++++++",
"..........++++++",
"++++++++++++++++",
"++++++++++++++++",
"++++++++++++++++",
"++++++++++++++++",
"++++++++++++++++",
"++++++++++++++++"};
