/* XPM */
static char * frameATL_xpm[] = {
"16 16 3 1",
" 	c None",
".	c #505D6D",
"+	c #FFFFFF",
"................",
"................",
"................",
"................",
"................",
"................",
"......++++++++++",
"......++++++++++",
"......++++++++++",
"......++++++++++",
"......++++++++++",
"......++++++++++",
"......++++++++++",
"......++++++++++",
"......++++++++++",
"......++++++++++"};
