/* XPM */
static char * frameATL_xpm[] = {
"16 16 3 1",
" 	c None",
".	c #828FAB",
"+	c #FFFFFF",
"................",
"................",
"................",
"................",
"................",
"................",
"......++++++++++",
"......++++++++++",
"......++++++++++",
"......++++++++++",
"......++++++++++",
"......++++++++++",
"......++++++++++",
"......++++++++++",
"......++++++++++",
"......++++++++++"};
