/* XPM */
      static char * tmp_xpm[] = {
      "1 17 3 1",
      " 	c None",
      ".	c #000000",
      "+	c #404B5A",
      ".",
      ".",
      ".",
      ".",
      ".",
      ".",
      ".",
      ".",
      ".",
      ".",
      ".",
      "+",
      "+",
      "+",
      "+",
      "+",
      "+"};
